<svg width="22" height="22" viewBox="0 0 22 22" fill="none" xmlns="http://www.w3.org/2000/svg">
<mask id="mask0_4511_208" style="mask-type:alpha" maskUnits="userSpaceOnUse" x="0" y="0" width="22" height="22">
<rect width="22" height="22" fill="#D9D9D9"/>
</mask>
<g mask="url(#mask0_4511_208)">
<path d="M7.43205 18.2416C7.02535 18.2416 6.67801 18.0977 6.39003 17.8098C6.10219 17.5219 5.95828 17.1745 5.95828 16.7678V6.04993H4.85828V4.85826H8.79994V3.86414H13.1999V4.85826H17.1416V6.04993H16.0416V16.758C16.0416 17.1818 15.8991 17.535 15.6142 17.8176C15.3293 18.1003 14.9805 18.2416 14.5678 18.2416H7.43205ZM14.8499 6.04993H7.14994V16.7678C7.14994 16.8502 7.17637 16.9178 7.22923 16.9706C7.2821 17.0235 7.3497 17.0499 7.43205 17.0499H14.5678C14.6384 17.0499 14.703 17.0205 14.7617 16.9617C14.8205 16.903 14.8499 16.8384 14.8499 16.7678V6.04993ZM9.17028 15.3999H10.3617V7.69993H9.17028V15.3999ZM11.6382 15.3999H12.8296V7.69993H11.6382V15.3999Z" fill="#E62D2D"/>
</g>
</svg>
