<svg width="22" height="22" viewBox="0 0 22 22" fill="none" xmlns="http://www.w3.org/2000/svg">
<mask id="mask0_4511_337" style="mask-type:alpha" maskUnits="userSpaceOnUse" x="0" y="0" width="22" height="22">
<rect width="22" height="22" fill="#D9D9D9"/>
</mask>
<g mask="url(#mask0_4511_337)">
</g>
<g clip-path="url(#clip0_4511_337)">
<path d="M16.3625 10.5815C15.9823 10.5815 15.675 10.8896 15.675 11.269V16.769C15.675 17.1478 15.367 17.4565 14.9876 17.4565H5.36255C4.98302 17.4565 4.67509 17.1478 4.67509 16.769V7.14398C4.67509 6.76519 4.98302 6.45652 5.36255 6.45652H10.8626C11.2428 6.45652 11.55 6.1485 11.55 5.76907C11.55 5.38954 11.2428 5.08148 10.8626 5.08148H5.36255C4.22543 5.08148 3.30005 6.00687 3.30005 7.14398V16.769C3.30005 17.9062 4.22543 18.8315 5.36255 18.8315H14.9876C16.1247 18.8315 17.0501 17.9062 17.0501 16.769V11.269C17.0501 10.8888 16.7427 10.5815 16.3625 10.5815Z" fill="#2A2A2A"/>
<path d="M9.74596 9.95525C9.69817 10.0032 9.66545 10.0642 9.65179 10.1305L9.16575 12.5616C9.14309 12.6743 9.17883 12.7904 9.25991 12.8723C9.29191 12.9042 9.32988 12.9294 9.37165 12.9467C9.41342 12.9639 9.45817 12.9727 9.50335 12.9726C9.52527 12.9726 9.54805 12.9706 9.57071 12.9658L12.001 12.4798C12.0684 12.4659 12.1296 12.4337 12.177 12.3855L17.6166 6.94596L15.1862 4.51576L9.74596 9.95525ZM19.2967 2.83485C18.6265 2.16451 17.5361 2.16451 16.8664 2.83485L15.9149 3.78628L18.3453 6.21661L19.2967 5.26506C19.6212 4.94128 19.8 4.50947 19.8 4.05024C19.8 3.59101 19.6212 3.15924 19.2967 2.83485Z" fill="#2A2A2A"/>
</g>
<defs>
<clipPath id="clip0_4511_337">
<rect width="16.5" height="16.5" fill="white" transform="translate(3.30005 2.2998)"/>
</clipPath>
</defs>
</svg>
