<svg width="16" height="16" viewBox="0 0 16 16" fill="none" xmlns="http://www.w3.org/2000/svg">
<mask id="mask0_4587_10087" style="mask-type:alpha" maskUnits="userSpaceOnUse" x="0" y="0" width="16" height="16">
<rect width="16" height="16" fill="#D9D9D9"/>
</mask>
<g mask="url(#mask0_4587_10087)">
<path d="M13.2667 4.941V12.1948C13.2667 12.4949 13.1631 12.7486 12.9559 12.9558C12.7487 13.1631 12.495 13.2667 12.1949 13.2667H3.80523C3.50512 13.2667 3.25145 13.1631 3.04423 12.9558C2.83701 12.7486 2.7334 12.4949 2.7334 12.1948V3.80517C2.7334 3.50506 2.83701 3.25139 3.04423 3.04417C3.25145 2.83695 3.50512 2.73334 3.80523 2.73334H11.0591L13.2667 4.941ZM12.4001 5.3L10.7001 3.6H3.80523C3.74534 3.6 3.69618 3.61923 3.65773 3.65767C3.61929 3.69612 3.60007 3.74528 3.60007 3.80517V12.1948C3.60007 12.2547 3.61929 12.3039 3.65773 12.3423C3.69618 12.3808 3.74534 12.4 3.80523 12.4H12.1949C12.2548 12.4 12.304 12.3808 12.3424 12.3423C12.3808 12.3039 12.4001 12.2547 12.4001 12.1948V5.3ZM8.00007 11.3128C8.40607 11.3128 8.75201 11.1699 9.0379 10.884C9.32379 10.5981 9.46673 10.2522 9.46673 9.84617C9.46673 9.44017 9.32379 9.09423 9.0379 8.80834C8.75201 8.52245 8.40607 8.3795 8.00007 8.3795C7.59407 8.3795 7.24812 8.52245 6.96223 8.80834C6.67634 9.09423 6.5334 9.44017 6.5334 9.84617C6.5334 10.2522 6.67634 10.5981 6.96223 10.884C7.24812 11.1699 7.59407 11.3128 8.00007 11.3128ZM4.65657 6.723H9.73073V4.6565H4.65657V6.723Z" fill="white"/>
</g>
</svg>
